{
  "accessors": [
    {
      "bufferView": 2,
      "componentType": 5126,
      "count": 192,
      "max": [
        0.529102087020874,
        0.917252242565155,
        -0.38734740018844604
      ],
      "min": [
        -0.529102087020874,
        -0.917252242565155,
        -1.4455502033233643
      ],
      "type": "VEC3"
    },
    {
      "bufferView": 2,
      "byteOffset": 2304,
      "componentType": 5126,
      "count": 192,
      "max": [
        0.9951847791671753,
        1.0,
        0.9951847195625305
      ],
      "min": [
        -0.9951847791671753,
        -1.0,
        -0.9951848983764648
      ],
      "type": "VEC3"
    },
    {
      "bufferView": 1,
      "componentType": 5126,
      "count": 192,
      "max": [
        1.0,
        1.0
      ],
      "min": [
        0.0,
        0.01000000536441803
      ],
      "type": "VEC2"
    },
    {
      "bufferView": 0,
      "componentType": 5125,
      "count": 372,
      "type": "SCALAR"
    },
    {
      "bufferView": 2,
      "byteOffset": 4608,
      "componentType": 5126,
      "count": 65532,
      "max": [
        0.4483034312725067,
        0.5736292004585266,
        0.13922138512134552
      ],
      "min": [
        -0.45363476872444153,
        -0.6095787286758423,
        -0.2727309763431549
      ],
      "type": "VEC3"
    },
    {
      "bufferView": 2,
      "byteOffset": 790992,
      "componentType": 5126,
      "count": 65532,
      "max": [
        0.9980999827384949,
        0.9995097517967224,
        0.9998671412467957
      ],
      "min": [
        -0.9969581961631775,
        -0.8135521411895752,
        -0.984574556350708
      ],
      "type": "VEC3"
    },
    {
      "bufferView": 1,
      "byteOffset": 1536,
      "componentType": 5126,
      "count": 65532,
      "max": [
        0.6250002384185791,
        0.9285716414451599
      ],
      "min": [
        0.6249998807907104,
        0.8236607313156128
      ],
      "type": "VEC2"
    },
    {
      "bufferView": 0,
      "byteOffset": 1488,
      "componentType": 5125,
      "count": 98298,
      "type": "SCALAR"
    },
    {
      "bufferView": 2,
      "byteOffset": 1577376,
      "componentType": 5126,
      "count": 65532,
      "max": [
        0.45328837633132935,
        0.5739777684211731,
        0.1600937396287918
      ],
      "min": [
        -0.448530912399292,
        -0.5433775782585144,
        -0.22763724625110626
      ],
      "type": "VEC3"
    },
    {
      "bufferView": 2,
      "byteOffset": 2363760,
      "componentType": 5126,
      "count": 65532,
      "max": [
        0.996909499168396,
        0.8617298603057861,
        0.9999886155128479
      ],
      "min": [
        -0.9981029033660889,
        -0.8014986515045166,
        -0.9999750256538391
      ],
      "type": "VEC3"
    },
    {
      "bufferView": 1,
      "byteOffset": 525792,
      "componentType": 5126,
      "count": 65532,
      "max": [
        0.6250001788139343,
        0.9285716414451599
      ],
      "min": [
        0.6249998807907104,
        0.8236607313156128
      ],
      "type": "VEC2"
    },
    {
      "bufferView": 0,
      "byteOffset": 394680,
      "componentType": 5125,
      "count": 98298,
      "type": "SCALAR"
    },
    {
      "bufferView": 2,
      "byteOffset": 3150144,
      "componentType": 5126,
      "count": 32776,
      "max": [
        0.4488859176635742,
        0.6666020750999451,
        0.13789576292037964
      ],
      "min": [
        -0.30689507722854614,
        -0.5388195514678955,
        -0.29994159936904907
      ],
      "type": "VEC3"
    },
    {
      "bufferView": 2,
      "byteOffset": 3543456,
      "componentType": 5126,
      "count": 32776,
      "max": [
        0.6895298361778259,
        0.8506930470466614,
        0.9995934367179871
      ],
      "min": [
        -0.9971096515655518,
        -0.9990573525428772,
        -0.9826065301895142
      ],
      "type": "VEC3"
    },
    {
      "bufferView": 1,
      "byteOffset": 1050048,
      "componentType": 5126,
      "count": 32776,
      "max": [
        0.6250001788139343,
        0.9285715818405151
      ],
      "min": [
        0.6249998807907104,
        0.8236607313156128
      ],
      "type": "VEC2"
    },
    {
      "bufferView": 0,
      "byteOffset": 787872,
      "componentType": 5125,
      "count": 49164,
      "type": "SCALAR"
    },
    {
      "bufferView": 2,
      "byteOffset": 3936768,
      "componentType": 5126,
      "count": 65533,
      "max": [
        0.9754465818405151,
        7.456193447113037,
        1.000000238418579
      ],
      "min": [
        -0.9761906266212463,
        -0.18412692844867706,
        -1.000000238418579
      ],
      "type": "VEC3"
    },
    {
      "bufferView": 2,
      "byteOffset": 4723164,
      "componentType": 5126,
      "count": 65533,
      "max": [
        0.9999244809150696,
        0.9998323917388916,
        1.0
      ],
      "min": [
        -1.0,
        -0.9992926120758057,
        -1.0
      ],
      "type": "VEC3"
    },
    {
      "bufferView": 1,
      "byteOffset": 1312256,
      "componentType": 5126,
      "count": 65533,
      "max": [
        0.8750001192092896,
        1.0000001192092896
      ],
      "min": [
        0.0,
        0.0
      ],
      "type": "VEC2"
    },
    {
      "bufferView": 0,
      "byteOffset": 984528,
      "componentType": 5125,
      "count": 98505,
      "type": "SCALAR"
    },
    {
      "bufferView": 2,
      "byteOffset": 5509560,
      "componentType": 5126,
      "count": 23380,
      "max": [
        0.9754466414451599,
        4.550443172454834,
        1.000000238418579
      ],
      "min": [
        -0.9761906862258911,
        0.26811832189559937,
        -1.000000238418579
      ],
      "type": "VEC3"
    },
    {
      "bufferView": 2,
      "byteOffset": 5790120,
      "componentType": 5126,
      "count": 23380,
      "max": [
        0.9999244809150696,
        0.999832272529602,
        1.0
      ],
      "min": [
        -0.9999290108680725,
        -0.9998892545700073,
        -1.0
      ],
      "type": "VEC3"
    },
    {
      "bufferView": 1,
      "byteOffset": 1836520,
      "componentType": 5126,
      "count": 23380,
      "max": [
        0.6250002384185791,
        1.0000001192092896
      ],
      "min": [
        0.0,
        0.0
      ],
      "type": "VEC2"
    },
    {
      "bufferView": 0,
      "byteOffset": 1378548,
      "componentType": 5125,
      "count": 35127,
      "type": "SCALAR"
    },
    {
      "bufferView": 2,
      "byteOffset": 6070680,
      "componentType": 5126,
      "count": 1264,
      "max": [
        1.0,
        0.7419317364692688,
        2.475210428237915
      ],
      "min": [
        -1.0,
        -1.6284596920013428,
        -2.475210428237915
      ],
      "type": "VEC3"
    },
    {
      "bufferView": 2,
      "byteOffset": 6085848,
      "componentType": 5126,
      "count": 1264,
      "max": [
        1.0,
        0.9851279258728027,
        1.0
      ],
      "min": [
        -1.0,
        -0.9994733929634094,
        -1.0
      ],
      "type": "VEC3"
    },
    {
      "bufferView": 1,
      "byteOffset": 2023560,
      "componentType": 5126,
      "count": 1264,
      "max": [
        0.875,
        1.0
      ],
      "min": [
        0.125,
        0.0
      ],
      "type": "VEC2"
    },
    {
      "bufferView": 0,
      "byteOffset": 1519056,
      "componentType": 5125,
      "count": 1896,
      "type": "SCALAR"
    },
    {
      "bufferView": 2,
      "byteOffset": 6101016,
      "componentType": 5126,
      "count": 2528,
      "max": [
        1.0,
        0.7419317364692688,
        2.475210428237915
      ],
      "min": [
        -1.0,
        -1.6284596920013428,
        -2.475210428237915
      ],
      "type": "VEC3"
    },
    {
      "bufferView": 2,
      "byteOffset": 6131352,
      "componentType": 5126,
      "count": 2528,
      "max": [
        1.0,
        0.9851279258728027,
        1.0
      ],
      "min": [
        -1.0,
        -0.9994733929634094,
        -1.0
      ],
      "type": "VEC3"
    },
    {
      "bufferView": 1,
      "byteOffset": 2033672,
      "componentType": 5126,
      "count": 2528,
      "max": [
        0.875,
        1.0
      ],
      "min": [
        0.125,
        0.0
      ],
      "type": "VEC2"
    },
    {
      "bufferView": 0,
      "byteOffset": 1526640,
      "componentType": 5125,
      "count": 3792,
      "type": "SCALAR"
    },
    {
      "bufferView": 2,
      "byteOffset": 6161688,
      "componentType": 5126,
      "count": 763,
      "max": [
        6.3807196617126465,
        0.49250513315200806,
        15.873093605041504
      ],
      "min": [
        -2.2593815326690674,
        -2.720015856993996e-07,
        -0.9334419965744019
      ],
      "type": "VEC3"
    },
    {
      "bufferView": 2,
      "byteOffset": 6170844,
      "componentType": 5126,
      "count": 763,
      "max": [
        0.9999996423721313,
        1.0,
        1.0
      ],
      "min": [
        -0.9999862909317017,
        -1.0,
        -1.0
      ],
      "type": "VEC3"
    },
    {
      "bufferView": 1,
      "byteOffset": 2053896,
      "componentType": 5126,
      "count": 763,
      "max": [
        1.0000001192092896,
        1.0
      ],
      "min": [
        0.0,
        0.0
      ],
      "type": "VEC2"
    },
    {
      "bufferView": 0,
      "byteOffset": 1541808,
      "componentType": 5125,
      "count": 1137,
      "type": "SCALAR"
    },
    {
      "bufferView": 2,
      "byteOffset": 6180000,
      "componentType": 5126,
      "count": 1092,
      "max": [
        11.036498069763184,
        0.020506180822849274,
        10.882895469665527
      ],
      "min": [
        -19.266237258911133,
        -1.3603451251983643,
        -32.288917541503906
      ],
      "type": "VEC3"
    },
    {
      "bufferView": 2,
      "byteOffset": 6193104,
      "componentType": 5126,
      "count": 1092,
      "max": [
        0.9979063272476196,
        1.0,
        0.999984860420227
      ],
      "min": [
        -0.9936993718147278,
        -1.0,
        -0.9999331831932068
      ],
      "type": "VEC3"
    },
    {
      "bufferView": 1,
      "byteOffset": 2060000,
      "componentType": 5126,
      "count": 1092,
      "max": [
        1.0000001192092896,
        1.0000001192092896
      ],
      "min": [
        0.0,
        0.0
      ],
      "type": "VEC2"
    },
    {
      "bufferView": 0,
      "byteOffset": 1546356,
      "componentType": 5125,
      "count": 1638,
      "type": "SCALAR"
    }
  ],
  "asset": {
    "extras": {
      "author": "lilavixen (https://sketchfab.com/lilavixen)",
      "license": "CC-BY-NC-SA-4.0 (http://creativecommons.org/licenses/by-nc-sa/4.0/)",
      "source": "https://sketchfab.com/3d-models/red-rocket-garbage-fallout-01f705af9c134bfeb3cc83eac50ea6c5",
      "title": "Red Rocket Garbage Fallout"
    },
    "generator": "Sketchfab-16.10.0",
    "version": "2.0"
  },
  "bufferViews": [
    {
      "buffer": 0,
      "byteLength": 1552908,
      "name": "floatBufferViews",
      "target": 34963
    },
    {
      "buffer": 0,
      "byteLength": 2068736,
      "byteOffset": 1552908,
      "byteStride": 8,
      "name": "floatBufferViews",
      "target": 34962
    },
    {
      "buffer": 0,
      "byteLength": 6206208,
      "byteOffset": 3621644,
      "byteStride": 12,
      "name": "floatBufferViews",
      "target": 34962
    }
  ],
  "buffers": [
    {
      "byteLength": 9827852,
      "uri": "scene.bin"
    }
  ],
  "materials": [
    {
      "doubleSided": true,
      "name": "Material.003",
      "pbrMetallicRoughness": {
        "baseColorFactor": [
          0.0,
          0.0,
          0.0,
          1.0
        ],
        "metallicFactor": 0.0,
        "roughnessFactor": 0.5
      }
    },
    {
      "doubleSided": true,
      "name": "Material.004",
      "pbrMetallicRoughness": {
        "baseColorFactor": [
          0.0290997,
          0.0290997,
          0.0290997,
          1.0
        ],
        "metallicFactor": 0.0,
        "roughnessFactor": 0.5
      }
    },
    {
      "doubleSided": true,
      "name": "Material",
      "pbrMetallicRoughness": {
        "baseColorFactor": [
          0.8,
          0.00186425,
          0.00275746,
          1.0
        ],
        "metallicFactor": 0.761905,
        "roughnessFactor": 0.642857
      }
    },
    {
      "doubleSided": true,
      "emissiveFactor": [
        1.0,
        1.0,
        1.0
      ],
      "name": "MetalZincGalvanized001_2K"
    }
  ],
  "meshes": [
    {
      "name": "Object_0",
      "primitives": [
        {
          "attributes": {
            "NORMAL": 1,
            "POSITION": 0,
            "TEXCOORD_0": 2
          },
          "indices": 3,
          "material": 0,
          "mode": 4
        }
      ]
    },
    {
      "name": "Object_1",
      "primitives": [
        {
          "attributes": {
            "NORMAL": 5,
            "POSITION": 4,
            "TEXCOORD_0": 6
          },
          "indices": 7,
          "material": 1,
          "mode": 4
        }
      ]
    },
    {
      "name": "Object_2",
      "primitives": [
        {
          "attributes": {
            "NORMAL": 9,
            "POSITION": 8,
            "TEXCOORD_0": 10
          },
          "indices": 11,
          "material": 1,
          "mode": 4
        }
      ]
    },
    {
      "name": "Object_3",
      "primitives": [
        {
          "attributes": {
            "NORMAL": 13,
            "POSITION": 12,
            "TEXCOORD_0": 14
          },
          "indices": 15,
          "material": 1,
          "mode": 4
        }
      ]
    },
    {
      "name": "Object_4",
      "primitives": [
        {
          "attributes": {
            "NORMAL": 17,
            "POSITION": 16,
            "TEXCOORD_0": 18
          },
          "indices": 19,
          "material": 2,
          "mode": 4
        }
      ]
    },
    {
      "name": "Object_5",
      "primitives": [
        {
          "attributes": {
            "NORMAL": 21,
            "POSITION": 20,
            "TEXCOORD_0": 22
          },
          "indices": 23,
          "material": 2,
          "mode": 4
        }
      ]
    },
    {
      "name": "Object_6",
      "primitives": [
        {
          "attributes": {
            "NORMAL": 25,
            "POSITION": 24,
            "TEXCOORD_0": 26
          },
          "indices": 27,
          "material": 2,
          "mode": 4
        }
      ]
    },
    {
      "name": "Object_7",
      "primitives": [
        {
          "attributes": {
            "NORMAL": 29,
            "POSITION": 28,
            "TEXCOORD_0": 30
          },
          "indices": 31,
          "material": 2,
          "mode": 4
        }
      ]
    },
    {
      "name": "Object_8",
      "primitives": [
        {
          "attributes": {
            "NORMAL": 33,
            "POSITION": 32,
            "TEXCOORD_0": 34
          },
          "indices": 35,
          "material": 3,
          "mode": 4
        }
      ]
    },
    {
      "name": "Object_9",
      "primitives": [
        {
          "attributes": {
            "NORMAL": 37,
            "POSITION": 36,
            "TEXCOORD_0": 38
          },
          "indices": 39,
          "material": 3,
          "mode": 4
        }
      ]
    }
  ],
  "nodes": [
    {
      "children": [
        1
      ],
      "matrix": [
        1.0,
        0.0,
        0.0,
        0.0,
        0.0,
        2.220446049250313e-16,
        -1.0,
        0.0,
        0.0,
        1.0,
        2.220446049250313e-16,
        0.0,
        0.0,
        0.0,
        0.0,
        1.0
      ],
      "name": "Sketchfab_model"
    },
    {
      "children": [
        2
      ],
      "name": "root"
    },
    {
      "children": [
        3,
        5,
        9,
        12,
        14,
        16,
        18
      ],
      "matrix": [
        1.0,
        0.0,
        0.0,
        0.0,
        0.0,
        2.220446049250313e-16,
        1.0,
        0.0,
        0.0,
        -1.0,
        2.220446049250313e-16,
        0.0,
        0.0,
        0.0,
        0.0,
        1.0
      ],
      "name": "GLTF_SceneRootNode"
    },
    {
      "children": [
        4
      ],
      "matrix": [
        2.7259881746110496e-09,
        -0.032339170575141796,
        0.0,
        0.0,
        0.6956778764724707,
        5.8641258599878817e-08,
        0.0,
        0.0,
        0.0,
        0.0,
        0.03233917057514191,
        0.0,
        -0.014193582348525524,
        4.513342380523682,
        0.9243319630622864,
        1.0
      ],
      "name": "axis_0"
    },
    {
      "mesh": 0,
      "name": "Object_4"
    },
    {
      "children": [
        6,
        7,
        8
      ],
      "matrix": [
        0.7379423379898071,
        0.0,
        0.0,
        0.0,
        0.0,
        0.7295420962982163,
        0.1110272398446311,
        0.0,
        0.0,
        -0.1110272398446311,
        0.7295420962982163,
        0.0,
        -0.010678363032639027,
        4.5127177238464355,
        0.8482909798622131,
        1.0
      ],
      "name": "top_1"
    },
    {
      "mesh": 1,
      "name": "Object_6"
    },
    {
      "mesh": 2,
      "name": "Object_7"
    },
    {
      "mesh": 3,
      "name": "Object_8"
    },
    {
      "children": [
        10,
        11
      ],
      "matrix": [
        1.0,
        0.0,
        0.0,
        0.0,
        0.0,
        1.0,
        0.0,
        0.0,
        0.0,
        0.0,
        1.0,
        0.0,
        0.0,
        1.103352427482605,
        0.0,
        1.0
      ],
      "name": "Body_2"
    },
    {
      "mesh": 4,
      "name": "Object_10"
    },
    {
      "mesh": 5,
      "name": "Object_11"
    },
    {
      "children": [
        13
      ],
      "matrix": [
        0.18383872509002686,
        0.0,
        0.0,
        0.0,
        0.0,
        1.4369264841079712,
        0.0,
        0.0,
        0.0,
        0.0,
        1.0,
        0.0,
        0.0,
        2.5371267795562744,
        0.00930749624967575,
        1.0
      ],
      "name": "Wings-2_3"
    },
    {
      "mesh": 6,
      "name": "Object_13"
    },
    {
      "children": [
        15
      ],
      "matrix": [
        0.0,
        0.0,
        -0.18383872509002686,
        0.0,
        0.0,
        1.4369264841079712,
        0.0,
        0.0,
        1.0,
        0.0,
        0.0,
        0.0,
        0.0,
        2.5371267795562744,
        0.00930749624967575,
        1.0
      ],
      "name": "Wings-1_4"
    },
    {
      "mesh": 7,
      "name": "Object_15"
    },
    {
      "children": [
        17
      ],
      "matrix": [
        0.05718652158975601,
        0.0,
        0.0,
        0.0,
        0.0,
        0.011125612192562565,
        0.05609384106010511,
        0.0,
        0.0,
        -0.012763166852264697,
        0.0025314373568234376,
        0.0,
        -0.15646159648895264,
        5.503612518310547,
        0.9101579189300537,
        1.0
      ],
      "name": "Red_5"
    },
    {
      "mesh": 8,
      "name": "Object_17"
    },
    {
      "children": [
        19
      ],
      "matrix": [
        -0.0027771203614841843,
        -0.00955345011449903,
        0.001561316170039355,
        -0.0,
        8.035252451099052e-10,
        -0.0024833144572624128,
        -0.015195012393925547,
        -0.0,
        -0.014799605522846945,
        0.004190222893136173,
        -0.0006848071401174688,
        -0.0,
        -0.21812757849693298,
        5.224163055419922,
        0.9629554152488708,
        1.0
      ],
      "name": "Rocket_6"
    },
    {
      "mesh": 9,
      "name": "Object_19"
    }
  ],
  "scene": 0,
  "scenes": [
    {
      "name": "Sketchfab_Scene",
      "nodes": [
        0
      ]
    }
  ]
}
